HIERARCHY
ROOT Hips
{
	OFFSET -0.001795 -0.223333 0.028219
	CHANNELS 6 Xposition Yposition Zposition Zrotation Yrotation Xrotation 
	JOINT LeftUpLeg
	{
		OFFSET 0.069520 -0.091406 -0.006815
		CHANNELS 3 Zrotation Yrotation Xrotation
		JOINT LeftLeg
		{
			OFFSET 0.034277 -0.375199 -0.004496
			CHANNELS 3 Zrotation Yrotation Xrotation
			JOINT LeftFoot
			{
				OFFSET -0.013596 -0.397961 -0.043693
				CHANNELS 3 Zrotation Yrotation Xrotation
				JOINT LeftToe
				{
					OFFSET 0.026358 -0.055791 0.119288
					CHANNELS 3 Zrotation Yrotation Xrotation
					End Site
					{
						OFFSET 0.000000 0.000000 0.000000
					}
				}
			}
		}
	}
	JOINT RightUpLeg
	{
		OFFSET -0.067670 -0.090522 -0.004320
		CHANNELS 3 Zrotation Yrotation Xrotation
		JOINT RightLeg
		{
			OFFSET -0.038290 -0.382569 -0.008850
			CHANNELS 3 Zrotation Yrotation Xrotation
			JOINT RightFoot
			{
				OFFSET 0.015774 -0.398415 -0.042312
				CHANNELS 3 Zrotation Yrotation Xrotation
				JOINT RightToe
				{
					OFFSET -0.025372 -0.048144 0.123348
					CHANNELS 3 Zrotation Yrotation Xrotation
					End Site
					{
						OFFSET 0.000000 0.000000 0.000000
					}
				}
			}
		}
	}
	JOINT Spine
	{
		OFFSET -0.002533 0.108963 -0.026696
		CHANNELS 3 Zrotation Yrotation Xrotation
		JOINT Spine1
		{
			OFFSET 0.005487 0.135180 0.001092
			CHANNELS 3 Zrotation Yrotation Xrotation
			JOINT Spine2
			{
				OFFSET 0.001457 0.052922 0.025425
				CHANNELS 3 Zrotation Yrotation Xrotation
				JOINT Neck
				{
					OFFSET -0.002778 0.213870 -0.042857
					CHANNELS 3 Zrotation Yrotation Xrotation
					JOINT Head
					{
						OFFSET 0.005152 0.064970 0.051349
						CHANNELS 3 Zrotation Yrotation Xrotation
						End Site
						{
							OFFSET 0.000000 0.000000 0.000000
						}
					}
				}
				JOINT LeftShoulder
				{
					OFFSET 0.078845 0.121749 -0.034090
					CHANNELS 3 Zrotation Yrotation Xrotation
					JOINT LeftArm
					{
						OFFSET 0.090977 0.030469 -0.008868
						CHANNELS 3 Zrotation Yrotation Xrotation
						JOINT LeftForeArm
						{
							OFFSET 0.259612 -0.012772 -0.027456
							CHANNELS 3 Zrotation Yrotation Xrotation
							JOINT LeftHand
							{
								OFFSET 0.249234 0.008986 -0.001171
								CHANNELS 3 Zrotation Yrotation Xrotation
								End Site
								{
									OFFSET 0.000000 0.000000 0.000000
								}
							}
						}
					}
				}
				JOINT RightShoulder
				{
					OFFSET -0.081759 0.118833 -0.038615
					CHANNELS 3 Zrotation Yrotation Xrotation
					JOINT RightArm
					{
						OFFSET -0.096012 0.032551 -0.009143
						CHANNELS 3 Zrotation Yrotation Xrotation
						JOINT RightForeArm
						{
							OFFSET -0.253742 -0.013329 -0.021401
							CHANNELS 3 Zrotation Yrotation Xrotation
							JOINT RightHand
							{
								OFFSET -0.255298 0.007772 -0.005559
								CHANNELS 3 Zrotation Yrotation Xrotation
								End Site
								{
									OFFSET 0.000000 0.000000 0.000000
								}
							}
						}
					}
				}
			}
		}
	}
}
MOTION
Frames: 13
Frame Time: 0.050000
0.014057 0.946609 -0.034078 -0.478885 -5.537136 3.873675 7.236124 -0.073882 -0.475534 -4.097523 0.489053 -5.680416 2.515193 8.675594 14.923380 0.000000 0.000000 0.000000 -7.239238 0.420355 -2.522789 2.585564 -0.250214 -0.664392 -6.002252 -17.204121 17.370348 0.000000 0.000000 0.000000 -3.016834 0.152455 -4.086809 4.874590 -1.579178 -10.988074 1.346788 3.983576 29.559191 -0.436107 1.653279 -18.689036 0.000000 0.000000 0.000000 -13.615442 -1.693396 0.099324 -40.276999 -34.160861 3.973202 175.420569 -87.722448 -168.362741 0.000000 0.000000 0.000000 4.559943 17.485680 6.642113 27.452834 35.809569 2.707268 -114.791847 85.589884 -105.008601 0.000000 0.000000 0.000000 
0.014850 0.946423 -0.034130 -0.414215 -5.972275 3.771970 7.033828 -0.065150 -0.491523 -3.991551 0.484520 -5.353124 2.620831 8.752430 14.740430 0.000000 0.000000 0.000000 -7.275566 0.429095 -2.603429 2.498687 -0.236770 -0.456649 -6.037913 -17.299805 17.252590 0.000000 0.000000 0.000000 -2.925733 0.152632 -4.014755 5.070234 -1.687931 -10.558194 1.452377 3.861908 29.325292 -0.374744 1.539684 -18.373865 0.000000 0.000000 0.000000 -13.684170 -1.905645 0.262887 -39.191037 -33.671711 3.624536 165.820115 -87.676079 -158.340893 0.000000 0.000000 0.000000 5.427428 18.048406 6.948023 28.019249 35.479455 2.748870 -104.260692 87.050843 -95.958101 0.000000 0.000000 0.000000 
0.015641 0.946430 -0.034360 -0.349525 -6.365740 3.584103 6.795490 -0.054646 -0.454907 -3.853885 0.476224 -4.974746 2.758057 8.870874 14.455793 0.000000 0.000000 0.000000 -7.459739 0.437273 -2.598139 2.696329 -0.247515 -0.216817 -5.937185 -17.153751 16.965198 0.000000 0.000000 0.000000 -2.976710 0.146659 -3.789037 5.392447 -1.838276 -10.188374 1.643256 3.872864 29.132668 -0.566184 1.626987 -18.083638 0.000000 0.000000 0.000000 -13.748844 -2.141090 0.410801 -38.375098 -33.109147 3.309671 163.879244 -87.859790 -156.411350 0.000000 0.000000 0.000000 6.632938 18.627166 7.327228 29.130373 34.885583 2.846532 -61.065040 88.477258 -54.521658 0.000000 0.000000 0.000000 
0.016369 0.946454 -0.034790 -0.272583 -6.631304 3.478382 6.580796 -0.049974 -0.478526 -3.662458 0.461660 -4.713740 2.911958 9.051540 14.286177 0.000000 0.000000 0.000000 -7.619506 0.450609 -2.792191 2.698035 -0.241994 0.027724 -5.899820 -17.126942 16.959657 0.000000 0.000000 0.000000 -3.091382 0.144076 -3.716212 5.576394 -1.949537 -9.647673 2.016196 3.806570 28.890357 -0.661148 1.653107 -17.931979 0.000000 0.000000 0.000000 -13.688893 -2.227788 0.490508 -37.249430 -32.706699 3.002946 161.557909 -87.965704 -154.091051 0.000000 0.000000 0.000000 7.769192 19.292667 7.736961 30.487096 34.458406 3.033694 13.346216 87.284770 17.701779 0.000000 0.000000 0.000000 
0.017060 0.946351 -0.035522 -0.129057 -6.876721 3.242863 6.350195 -0.047584 -0.586785 -3.588051 0.455197 -4.265747 2.984725 9.093717 14.014977 0.000000 0.000000 0.000000 -7.846740 0.458463 -2.837895 2.852061 -0.249375 0.328769 -5.944163 -17.221775 16.945438 0.000000 0.000000 0.000000 -3.210428 0.134909 -3.398584 5.846131 -2.081692 -9.279150 2.473769 3.995701 28.850276 -0.869668 1.784970 -17.380831 0.000000 0.000000 0.000000 -13.700474 -2.558770 0.643184 -36.221884 -32.036984 2.635311 167.911529 -87.593957 -160.687809 0.000000 0.000000 0.000000 8.786298 19.846761 8.128161 32.062035 34.256121 3.304691 27.773865 84.861546 30.348847 0.000000 0.000000 0.000000 
0.017743 0.946527 -0.036547 0.039388 -6.999573 3.014317 6.050061 -0.051036 -0.759858 -3.534805 0.448481 -3.655140 3.094519 9.234248 13.898458 0.000000 0.000000 0.000000 -8.040331 0.463475 -2.896582 2.946411 -0.253445 0.573838 -5.788401 -17.026663 17.229565 0.000000 0.000000 0.000000 -3.353455 0.124088 -2.982804 6.053623 -2.205566 -8.713965 2.871338 3.888848 28.715651 -0.803747 1.707287 -17.273380 0.000000 0.000000 0.000000 -13.811675 -2.829323 0.803713 -34.938186 -31.276859 2.220982 170.571565 -87.249052 -163.440197 0.000000 0.000000 0.000000 9.585650 20.714619 8.594787 32.955987 34.567326 3.587677 30.055038 82.306867 31.025174 0.000000 0.000000 0.000000 
0.018543 0.946526 -0.038049 0.103946 -7.302007 2.748196 5.875170 -0.041159 -0.688780 -3.557643 0.451138 -3.146040 3.326706 9.508593 13.489558 0.000000 0.000000 0.000000 -8.057242 0.466139 -2.960735 3.046172 -0.257453 0.789470 -5.781563 -17.034994 17.088908 0.000000 0.000000 0.000000 -3.279366 0.113665 -2.533741 6.212306 -2.292930 -8.441658 3.477698 4.121842 29.033050 -1.016055 1.855078 -16.889028 0.000000 0.000000 0.000000 -13.674874 -3.130058 0.956331 -34.224166 -30.544362 1.883755 -176.161938 -86.533341 -177.410428 0.000000 0.000000 0.000000 9.965749 21.429878 8.972615 33.703430 35.364592 3.950775 22.673191 79.904023 23.537002 0.000000 0.000000 0.000000 
0.019508 0.946714 -0.040067 0.231166 -7.312421 2.655258 5.676242 -0.055483 -1.005332 -3.356756 0.428855 -2.701099 3.290923 9.471876 13.651409 0.000000 0.000000 0.000000 -8.165115 0.474898 -3.230656 3.030769 -0.252451 1.016526 -5.830050 -17.163306 17.485764 0.000000 0.000000 0.000000 -3.277540 0.102692 -1.985033 6.486726 -2.446813 -7.821074 3.864432 4.181436 28.694113 -1.004381 1.845766 -16.654574 0.000000 0.000000 0.000000 -13.623135 -3.449484 1.093608 -33.537172 -29.679998 1.592617 -168.797483 -86.232432 174.584988 0.000000 0.000000 0.000000 10.058142 22.161639 9.311520 33.967241 36.390658 4.341808 16.216969 77.642500 17.358998 0.000000 0.000000 0.000000 
0.020508 0.946903 -0.042534 0.290860 -7.344764 2.711887 5.592777 -0.068229 -1.258139 -3.350140 0.426955 -2.405200 3.234084 9.347149 13.470962 0.000000 0.000000 0.000000 -8.148372 0.481186 -3.405435 3.025545 -0.250269 1.098406 -5.799043 -17.123012 17.495889 0.000000 0.000000 0.000000 -3.115981 0.096142 -1.650454 6.687928 -2.531941 -7.719838 4.144387 4.378516 29.077772 -1.059742 1.913283 -16.590197 0.000000 0.000000 0.000000 -13.229928 -3.786824 1.243624 -33.074967 -29.207016 1.383967 -164.664961 -85.873777 169.988402 0.000000 0.000000 0.000000 10.047543 22.903681 9.662306 33.405522 37.612835 4.541353 6.968602 75.338290 9.516927 0.000000 0.000000 0.000000 
0.021383 0.947191 -0.045046 0.262121 -7.008176 2.839552 5.638340 -0.083801 -1.488670 -3.228083 0.411633 -2.415354 2.914945 8.882012 13.530117 0.000000 0.000000 0.000000 -8.124238 0.487152 -3.769293 3.101819 -0.257777 1.237049 -5.908800 -17.321115 18.054787 0.000000 0.000000 0.000000 -3.076287 0.088449 -1.213240 7.019680 -2.663926 -7.608296 4.372172 4.512233 29.135687 -0.674747 1.695265 -16.703663 0.000000 0.000000 0.000000 -13.180120 -3.929553 1.254813 -32.330631 -29.101998 1.269544 -151.702256 -85.549553 155.712067 0.000000 0.000000 0.000000 9.281295 23.456326 9.804560 32.940936 38.916579 4.814311 -2.003504 72.563213 2.545518 0.000000 0.000000 0.000000 
0.022089 0.947430 -0.047216 0.201686 -6.571692 2.885769 5.508432 -0.100315 -1.685067 -3.000743 0.385408 -2.465043 2.619608 8.446477 13.463220 0.000000 0.000000 0.000000 -7.956453 0.474095 -3.681253 3.076094 -0.260636 1.092877 -6.140910 -17.661259 18.407594 0.000000 0.000000 0.000000 -2.912569 0.078181 -0.803450 7.373244 -2.812356 -7.421939 4.349206 4.581433 29.166329 -0.388278 1.543995 -16.773335 0.000000 0.000000 0.000000 -12.823445 -4.026399 1.252764 -31.941857 -29.145001 1.235816 -145.263056 -85.483741 148.575981 0.000000 0.000000 0.000000 8.823541 24.157064 10.056508 31.863085 39.947023 4.844463 -9.315093 69.377196 -2.613432 0.000000 0.000000 0.000000 
0.022607 0.947532 -0.048733 0.201439 -6.116009 2.789490 5.443736 -0.102352 -1.619158 -2.878734 0.372061 -2.658393 2.200599 7.869802 13.667950 0.000000 0.000000 0.000000 -7.818936 0.461654 -3.678864 3.172672 -0.267747 1.485971 -6.256330 -17.758805 18.126830 0.000000 0.000000 0.000000 -2.659741 0.063435 -0.356443 7.488160 -2.845595 -7.516862 4.378459 4.846424 29.360756 0.339757 1.114416 -16.838571 0.000000 0.000000 0.000000 -12.745791 -4.546705 1.417025 -31.428174 -29.518957 1.261253 -135.630361 -85.801211 138.209320 0.000000 0.000000 0.000000 8.429289 24.618894 10.236719 30.935312 40.982418 4.890819 -13.441381 65.944731 -5.056778 0.000000 0.000000 0.000000 
0.022973 0.947801 -0.049766 0.226718 -5.520456 2.827601 5.249418 -0.110645 -1.587334 -2.739039 0.359345 -3.072031 1.936324 7.529041 13.707287 0.000000 0.000000 0.000000 -7.705578 0.445470 -3.535168 3.163754 -0.272486 1.411974 -6.612067 -18.247317 18.288236 0.000000 0.000000 0.000000 -2.605883 0.058516 -0.189241 7.454771 -2.837068 -7.402700 4.469971 4.872450 29.278660 0.581861 1.000172 -16.910530 0.000000 0.000000 0.000000 -12.423127 -4.760555 1.458622 -31.500942 -30.561141 1.534643 -124.182520 -86.453122 126.538901 0.000000 0.000000 0.000000 7.901203 25.257250 10.432784 29.795699 42.272862 4.947104 -17.314532 61.803005 -6.967520 0.000000 0.000000 0.000000 
